<?xml version="1.0" encoding="UTF-8" standalone="no"?>
<!-- Created with Inkscape (http://www.inkscape.org/) -->

<svg
   xmlns:dc="http://purl.org/dc/elements/1.1/"
   xmlns:cc="http://creativecommons.org/ns#"
   xmlns:rdf="http://www.w3.org/1999/02/22-rdf-syntax-ns#"
   xmlns:svg="http://www.w3.org/2000/svg"
   xmlns="http://www.w3.org/2000/svg"
   xmlns:sodipodi="http://sodipodi.sourceforge.net/DTD/sodipodi-0.dtd"
   xmlns:inkscape="http://www.inkscape.org/namespaces/inkscape"
   width="1440"
   height="170"
   id="svg2"
   version="1.1"
   inkscape:version="0.48.4 r9939"
   sodipodi:docname="logos.svg"
   inkscape:export-filename="D:\writing\metsoc_2015\presentation\logos.png"
   inkscape:export-xdpi="125"
   inkscape:export-ydpi="125">
  <defs
     id="defs4">
    <clipPath
       id="clipPath4890"
       clipPathUnits="userSpaceOnUse">
      <path
         id="path4892"
         d="m 0,0 3925,0 0,1608.67 -3925,0 L 0,0 z"
         inkscape:connector-curvature="0" />
    </clipPath>
    <clipPath
       id="clipPath5176"
       clipPathUnits="userSpaceOnUse">
      <path
         id="path5178"
         d="m 0,0 3925,0 0,1608.67 -3925,0 L 0,0 z"
         inkscape:connector-curvature="0" />
    </clipPath>
  </defs>
  <sodipodi:namedview
     id="base"
     pagecolor="#ffffff"
     bordercolor="#666666"
     borderopacity="1.0"
     inkscape:pageopacity="0.0"
     inkscape:pageshadow="2"
     inkscape:zoom="0.50000002"
     inkscape:cx="821.31711"
     inkscape:cy="-27.53871"
     inkscape:document-units="px"
     inkscape:current-layer="layer1"
     showgrid="false"
     units="px"
     inkscape:window-width="1920"
     inkscape:window-height="1018"
     inkscape:window-x="-8"
     inkscape:window-y="-8"
     inkscape:window-maximized="1"
     showguides="true"
     inkscape:guide-bbox="true"
     inkscape:snap-global="true"
     guidetolerance="10000"
     inkscape:snap-bbox="true"
     inkscape:snap-to-guides="true"
     inkscape:snap-grids="true"
     inkscape:bbox-nodes="false"
     inkscape:snap-bbox-midpoints="true"
     inkscape:snap-nodes="true"
     inkscape:bbox-paths="false">
    <inkscape:grid
       type="xygrid"
       id="grid4652"
       empspacing="5"
       visible="true"
       enabled="true"
       snapvisiblegridlinesonly="true"
       units="mm"
       spacingx="1mm"
       spacingy="1mm" />
  </sodipodi:namedview>
  <metadata
     id="metadata7">
    <rdf:RDF>
      <cc:Work
         rdf:about="">
        <dc:format>image/svg+xml</dc:format>
        <dc:type
           rdf:resource="http://purl.org/dc/dcmitype/StillImage" />
        <dc:title></dc:title>
      </cc:Work>
    </rdf:RDF>
  </metadata>
  <g
     inkscape:label="Layer 1"
     inkscape:groupmode="layer"
     id="layer1"
     transform="translate(0,-882.36216)">
    <text
       sodipodi:linespacing="125%"
       id="text5142"
       y="408.07645"
       x="427.14285"
       style="font-size:40px;font-style:normal;font-weight:normal;line-height:125%;letter-spacing:0px;word-spacing:0px;fill:#000000;fill-opacity:1;stroke:none;font-family:Sans"
       xml:space="preserve"><tspan
         y="408.07645"
         x="427.14285"
         id="tspan5144"
         sodipodi:role="line" /></text>
    <flowRoot
       style="font-size:40px;font-style:normal;font-weight:normal;line-height:125%;letter-spacing:0px;word-spacing:0px;fill:#000000;fill-opacity:1;stroke:none;font-family:Sans"
       id="flowRoot4090"
       xml:space="preserve"
       transform="matrix(1.25,0,0,-1.25,224.05434,911.58154)"><flowRegion
         id="flowRegion4092"><rect
           y="41.572052"
           x="373.75644"
           height="50.507626"
           width="2.0203052"
           id="rect4094"
           style="fill:#000000" /></flowRegion><flowPara
         id="flowPara4096" /></flowRoot>    <g
       transform="matrix(1.1666186,0,0,-1.1666186,-38.250004,1037.4764)"
       inkscape:label="ink_ext_XXXXXX"
       id="g4662"
       style="fill:#ffffff;fill-opacity:1">
      <g
         transform="matrix(0.08,0,0,0.08,43.0732,7.5939499)"
         id="g4664"
         style="fill:#ffffff;fill-opacity:1">
        <path
           id="path4668"
           style="fill:#ffffff;fill-opacity:1;fill-rule:nonzero;stroke:none"
           d="M 380.242,605.707 466.09,556.23 c 0,0 8.437,-3.882 12.367,-10.621 3.535,-6.039 3.789,-12.609 3.789,-12.609 l 0,-77.258 c 0,0 0.305,-9.492 -2.527,-15.156 -2.778,-5.555 -6.071,-8.082 -6.071,-8.082 l -79.269,-47.465 c 0,0 -7.57,-5.043 -14.137,-5.043 -6.566,0 -16.164,5.043 -16.164,5.043 l -74.23,43.926 c 0,0 -3.282,1.019 -8.328,7.082 -5.043,6.062 -4.29,16.664 -4.29,15.137 0,-1.5 0,83.339 0,83.339 0,0 -0.507,5.047 3.528,10.606 5.25,7.215 10.105,9.074 10.105,9.074 l 89.379,51.504 0,0"
           inkscape:connector-curvature="0" />
        <path
           id="path4670"
           style="fill:#ffffff;fill-opacity:1;fill-rule:nonzero;stroke:none"
           d="m 168.508,602.191 0,-27.679 103.594,0 48.035,27.679 -151.629,0"
           inkscape:connector-curvature="0" />
        <path
           id="path4672"
           style="fill:#ffffff;fill-opacity:1;fill-rule:nonzero;stroke:none"
           d="m 590.938,602.191 -150.317,0 48.016,-27.679 102.301,0 0,27.679"
           inkscape:connector-curvature="0" />
        <path
           id="path4674"
           style="fill:#ffffff;fill-opacity:1;fill-rule:nonzero;stroke:none"
           d="m 510.48,519.152 80.458,0 0,27.68 -80.747,0 c 0.243,-1.641 0.289,-2.656 0.289,-2.656 l 0,-25.024"
           inkscape:connector-curvature="0" />
        <path
           id="path4676"
           style="fill:#ffffff;fill-opacity:1;fill-rule:nonzero;stroke:none"
           d="m 248.984,546.832 -80.476,0 0,-27.68 80.496,0 c 0,15.442 0,26.953 0,26.953 0,0 -0.02,0.254 -0.02,0.727"
           inkscape:connector-curvature="0" />
        <path
           id="path4678"
           style="fill:#ffffff;fill-opacity:1;fill-rule:nonzero;stroke:none"
           d="m 510.48,463.793 80.457,0 0,27.6719 -80.457,0 0,-27.6719 z"
           inkscape:connector-curvature="0" />
        <path
           id="path4680"
           style="fill:#ffffff;fill-opacity:1;fill-rule:nonzero;stroke:none"
           d="m 168.508,491.465 0,-27.672 80.496,0 c 0,8.281 0,17.941 0,27.672 l -80.496,0"
           inkscape:connector-curvature="0" />
        <path
           id="path4682"
           style="fill:#ffffff;fill-opacity:1;fill-rule:nonzero;stroke:none"
           d="m 499.527,416.012 -12.668,-7.59 104.079,0 0,27.683 -81.012,0 c -0.449,-3.332 -1.25,-6.945 -2.676,-9.792 -3.527,-7.075 -7.723,-10.301 -7.723,-10.301"
           inkscape:connector-curvature="0" />
        <path
           id="path4684"
           style="fill:#ffffff;fill-opacity:1;fill-rule:nonzero;stroke:none"
           d="m 254.48,420.523 c -3.867,4.637 -5.054,11.368 -5.402,15.582 l -80.57,0 0,-27.683 101.789,0 -5.192,3.078 c 0,0 -4.183,1.293 -10.625,9.023"
           inkscape:connector-curvature="0" />
        <path
           id="path4686"
           style="fill:#ffffff;fill-opacity:1;fill-rule:nonzero;stroke:none"
           d="m 394.203,353.059 196.656,0 c 0.02,1.004 0.079,1.972 0.079,2.976 l 0,24.707 -150.309,0 -42.211,-25.273 c 0,0 -1.68,-1.102 -4.215,-2.41"
           inkscape:connector-curvature="0" />
        <path
           id="path4688"
           style="fill:#ffffff;fill-opacity:1;fill-rule:nonzero;stroke:none"
           d="m 317.078,380.742 -148.57,0 0,-24.707 c 0,-1.004 0.066,-1.972 0.078,-2.976 l 196.379,0 c -3.063,1.308 -5.184,2.41 -5.184,2.41 l -42.703,25.273"
           inkscape:connector-curvature="0" />
        <path
           id="path4690"
           style="fill:#ffffff;fill-opacity:1;fill-rule:nonzero;stroke:none"
           d="m 580.816,297.695 c 3.172,9.055 5.637,18.293 7.332,27.688 l -194.332,0 0,-27.688 187,0"
           inkscape:connector-curvature="0" />
        <path
           id="path4692"
           style="fill:#ffffff;fill-opacity:1;fill-rule:nonzero;stroke:none"
           d="m 171.305,325.383 c 1.683,-9.395 4.156,-18.633 7.332,-27.688 l 186.984,0 0,27.688 -194.316,0"
           inkscape:connector-curvature="0" />
        <path
           id="path4694"
           style="fill:#ffffff;fill-opacity:1;fill-rule:nonzero;stroke:none"
           d="m 190.941,270.02 c 5.149,-9.512 11.09,-18.77 17.832,-27.665 l 156.848,0 0,27.665 -174.68,0"
           inkscape:connector-curvature="0" />
        <path
           id="path4696"
           style="fill:#ffffff;fill-opacity:1;fill-rule:nonzero;stroke:none"
           d="m 550.664,242.355 c 6.754,8.895 12.695,18.153 17.844,27.665 l -174.692,0 0,-27.665 156.848,0"
           inkscape:connector-curvature="0" />
        <path
           id="path4698"
           style="fill:#ffffff;fill-opacity:1;fill-rule:nonzero;stroke:none"
           d="m 233.242,214.66 c 9.985,-9.777 20.946,-19.023 32.836,-27.687 l 99.543,0 0,27.687 -132.379,0"
           inkscape:connector-curvature="0" />
        <path
           id="path4700"
           style="fill:#ffffff;fill-opacity:1;fill-rule:nonzero;stroke:none"
           d="m 493.375,186.973 c 11.883,8.664 22.852,17.91 32.824,27.687 l -132.383,0 0,-27.687 99.559,0"
           inkscape:connector-curvature="0" />
        <path
           id="path4702"
           style="fill:#ffffff;fill-opacity:1;fill-rule:nonzero;stroke:none"
           d="m 311.227,159.297 c 17.027,-8.777 35.218,-20.145 54.394,-26.727 l 0,26.727 -54.394,0"
           inkscape:connector-curvature="0" />
        <path
           id="path4704"
           style="fill:#ffffff;fill-opacity:1;fill-rule:nonzero;stroke:none"
           d="m 448.215,159.297 -54.399,0 0,-26.727 c 19.188,6.582 37.383,17.95 54.399,26.727"
           inkscape:connector-curvature="0" />
        <path
           id="path4708"
           style="fill:#ffffff;fill-opacity:1;fill-rule:nonzero;stroke:none"
           d="m 4279.65,27.6875 -3520.216,0 0,704.0235 3520.216,0 0,-704.0235 z m -4251.9703,0 0,704.0235 704.0743,0 0,-704.0235 -704.0743,0 z M 0,759.395 0,0 l 4307.32,0 0,759.395 -4307.32,0"
           inkscape:connector-curvature="0" />
        <path
           id="path4710"
           style="fill:#ffffff;fill-opacity:1;fill-rule:nonzero;stroke:none"
           d="m 3260.83,424.496 c -15.46,0 -33.75,-15.351 -40.43,-23.547 -6.71,-8.191 -24.61,-36.75 -24.61,-36.75 l 0,-113.484 c 0,-3.75 0.01,-12.305 0.01,-12.305 0,0 -8.73,0.02 -12.7,0.02 l -9.14,0 c -7.9,0 -12.27,4.746 -12.27,12.285 l 0,192.371 c 0,3.937 -0.02,12.305 -0.02,12.305 0,0 8.51,-0.008 12.29,-0.008 l 9.14,0 c 7.94,0 12.69,-4.762 12.69,-12.297 l 0,-35.691 3.17,4.753 c 16.27,24.981 35.31,43.235 63.44,43.235 l 1.59,0 c 4.12,0 7.42,-1.426 9.54,-3.922 1.79,-2.09 2.77,-4.957 2.77,-8.375 l 0,-18.59 -15.47,0"
           inkscape:connector-curvature="0" />
        <path
           id="path4712"
           style="fill:#ffffff;fill-opacity:1;fill-rule:nonzero;stroke:none"
           d="m 2345.61,340.656 c 0,-68.222 -43.65,-105.508 -108.7,-105.508 -67.82,0 -108.28,37.684 -108.28,105.508 l 0,182.852 c 0,7.535 4.77,12.293 12.31,12.293 l 12.27,0 c 3.97,0 12.65,0.015 12.65,0.015 0,0 0.04,-8.507 0.04,-12.308 l 0,-182.852 c 0,-52.765 30.96,-72.968 71.01,-72.968 40.45,0 71.39,20.222 71.39,72.968 l 0,182.852 c 0,7.535 4.76,12.308 12.31,12.308 l 12.69,0 c 4.15,0 12.31,0 12.31,0 l 0,-195.16"
           inkscape:connector-curvature="0" />
        <path
           id="path4714"
           style="fill:#ffffff;fill-opacity:1;fill-rule:nonzero;stroke:none"
           d="m 2900.58,399.355 c 0,-74.16 -43.65,-142.39 -65.08,-161.035 l -37.29,0 c -21.78,18.645 -61.87,86.875 -61.87,161.035 l 0,43.637 c 0,7.547 4.39,12.301 12.31,12.301 l 9.11,0 c 4.75,0 12.75,0.02 12.75,0.02 0,0 -0.04,-9.266 -0.04,-12.321 l 0,-43.637 c 0,-61.863 24.58,-113.027 48.01,-136.042 22.99,23.015 47.98,74.179 47.98,136.042 l 0,43.637 c 0,7.547 4.77,12.301 12.27,12.301 l 9.13,0 c 4.6,0 12.72,0.02 12.72,0.02 l 0,-55.958"
           inkscape:connector-curvature="0" />
        <path
           id="path4716"
           style="fill:#ffffff;fill-opacity:1;fill-rule:nonzero;stroke:none"
           d="m 2944.34,322.023 0,43.231 c 0,59.094 40.05,93.207 92.8,93.207 43.21,0 74.18,-18.641 74.18,-62.258 0,-38.488 -24.6,-61.887 -67.83,-61.887 l -65.05,0 0,-12.293 c 0,-40.449 24.59,-55.937 58.7,-55.937 24.58,0 61.94,13.633 61.94,13.633 0,0 -0.04,-8.047 -0.04,-10.84 l 0,-8.731 c 0,-7.929 -0.82,-10.703 -7.56,-13.886 -3.18,-1.582 -29.76,-11.114 -54.34,-11.114 -52.75,0 -92.8,25 -92.8,86.875 m 89.63,40.457 c 34.14,0 43.64,12.286 43.64,33.723 0,23.379 -15.89,31.32 -40.47,31.32 -37.28,0 -58.7,-18.64 -58.7,-62.269 l 0,-2.774 55.53,0"
           inkscape:connector-curvature="0" />
        <path
           id="path4718"
           style="fill:#ffffff;fill-opacity:1;fill-rule:nonzero;stroke:none"
           d="m 3335.97,396.195 c 0,-19.828 13.48,-21.82 30.94,-26.183 l 26.56,-6.348 c 33.72,-7.91 60.27,-21.406 60.27,-63.469 0,-47.976 -41.62,-65.047 -86.83,-65.047 -26.22,0 -51.17,4.766 -53.97,5.555 -3.59,0.91 -9.4,2.805 -9.4,2.805 0,0 -0.13,4.59 -0.13,8.711 l 0,10.711 c 0,6.34 4.38,9.113 9.95,9.113 1.58,0 2.38,0 3.94,-0.391 3.58,-0.8 24.6,-5.566 49.61,-5.566 34.1,0 52.74,9.512 52.74,34.109 0,18.653 -15.86,26.993 -34.11,30.95 l -32.52,7.937 c -29.36,6.731 -51.17,23.391 -51.17,57.113 0,38.875 32.53,62.262 83.69,62.262 26.58,0 45.21,-3.961 48,-4.355 4.34,-0.653 9.49,-2.266 9.49,-2.266 0,0 0.03,-5.84 0.03,-9.242 l 0,-11.11 c 0,-6.336 -4.77,-8.726 -10.34,-8.726 -6.72,0 -21.41,4.773 -47.18,4.773 -32.52,0 -49.57,-9.527 -49.57,-31.336"
           inkscape:connector-curvature="0" />
        <path
           id="path4720"
           style="fill:#ffffff;fill-opacity:1;fill-rule:nonzero;stroke:none"
           d="m 3888.43,294.258 -15.46,-15.457 c -15.87,-15.871 -34.92,-28.184 -63.08,-28.184 -35.69,0 -57.9,19.852 -57.9,74.571 l 0,117.8 c 0,7.551 4.76,12.305 12.3,12.305 l 9.51,0 c 3.97,0 12.3,0.02 12.3,0.02 l 0,-130.125 c 0,-32.911 13.46,-43.614 33.33,-43.614 21.39,0 44,21.805 56.31,34.09 l 12.69,12.695 0,114.629 c 0,7.551 4.34,12.305 12.29,12.305 l 9.11,0 c 4.19,0 12.7,0.02 12.7,0.02 0,0 0.03,-8.75 0.03,-12.325 l 0,-176.902 c 0,-74.16 -43.64,-102.324 -117.82,-102.324 l -24.97,0 c -4.04,0 -12.33,0.039 -12.33,0.039 0,0 0.02,8.953 0.02,12.656 l 0,5.938 c 0,7.929 4.76,12.695 12.31,12.695 l 24.97,0 c 58.69,0 83.69,18.242 83.69,68.223 l 0,30.945"
           inkscape:connector-curvature="0" />
        <path
           id="path4722"
           style="fill:#ffffff;fill-opacity:1;fill-rule:nonzero;stroke:none"
           d="m 3701.71,269.309 c 3.91,0 7.07,-1.289 9.22,-3.594 1.98,-2.129 3.06,-5.098 3.06,-8.711 l 0,-18.613 c 0,0 -8.63,-0.039 -12.28,-0.039 l -18.65,0 c -43.25,0 -71.4,24.589 -71.4,71.406 l 0,182.844 c 0,3.742 -0.05,12.273 -0.05,12.273 0,0 8.56,0.02 12.35,0.02 l 9.5,0 c 7.56,0 12.3,-4.758 12.3,-12.293 l 0,-37.289 49.6,0 c 7.92,0 12.29,-4.75 12.29,-12.282 l 0,-6.359 c 0,-4.109 -0.06,-12.238 -0.06,-12.238 0,0 -8.43,-0.059 -12.23,-0.059 l -49.6,0 0,-114.617 c 0,-24.992 13.09,-40.449 37.3,-40.449 l 18.65,0"
           inkscape:connector-curvature="0" />
        <path
           id="path4724"
           style="fill:#ffffff;fill-opacity:1;fill-rule:nonzero;stroke:none"
           d="m 2682.99,250.617 c 0,-4.082 -0.03,-12.265 -0.03,-12.265 0,0 -8.62,-0.032 -12.28,-0.032 l -9.12,0 c -7.94,0 -12.68,4.758 -12.68,12.297 l 0,173.731 -24.21,0 c -8.33,0 -12.3,4.363 -12.3,12.293 l 0,18.691 c 0,0 8.24,-0.047 11.91,-0.047 l 46.4,0 c 7.95,0 12.31,-4.765 12.31,-12.293 l 0,-192.375 z m 0,260.203 c 0,-7.558 -4.36,-12.3 -12.31,-12.3 l -9.12,0 c -3.89,0 -12.69,0.007 -12.69,0.007 0,0 0.01,8.465 0.01,12.293 l 0,12.68 c 0,7.543 4.74,12.301 12.68,12.301 l 9.12,0 c 3.98,0 12.28,0.012 12.28,0.012 0,0 0.03,-8.536 0.03,-12.313 l 0,-12.68"
           inkscape:connector-curvature="0" />
        <path
           id="path4726"
           style="fill:#ffffff;fill-opacity:1;fill-rule:nonzero;stroke:none"
           d="m 3556.17,250.617 c 0,-4.082 -0.03,-12.265 -0.03,-12.265 0,0 -8.64,-0.032 -12.26,-0.032 l -9.13,0 c -7.93,0 -12.7,4.758 -12.7,12.297 l 0,173.731 -24.2,0 c -8.3,0 -12.27,4.363 -12.27,12.293 l 0,18.691 c 0,0 8.2,-0.047 11.88,-0.047 l 46.42,0 c 7.91,0 12.29,-4.765 12.29,-12.293 l 0,-192.375 z m 0,260.203 c 0,-7.543 -4.38,-12.3 -12.29,-12.3 l -9.13,0 c -3.93,0 -12.7,0.007 -12.7,0.007 l 0,24.973 c 0,7.543 4.77,12.301 12.7,12.301 l 9.13,0 c 3.97,0 12.26,0.012 12.26,0.012 0,0 0.03,-8.536 0.03,-12.313 l 0,-12.68"
           inkscape:connector-curvature="0" />
        <path
           id="path4728"
           style="fill:#ffffff;fill-opacity:1;fill-rule:nonzero;stroke:none"
           d="m 2435.33,414.867 15.46,15.485 c 15.48,15.453 34.13,28.156 61.89,28.156 34.09,0 58.71,-18.641 58.71,-74.563 l 0,-145.515 c 0,0 -8.5,-0.032 -12.3,-0.032 l -9.14,0 c -7.94,0 -12.69,4.739 -12.69,12.297 l 0,133.25 c 0,34.114 -15.47,43.625 -33.71,43.625 -21.81,0 -43.64,-21.808 -55.92,-34.113 l -12.3,-12.684 0,-142.375 -21.8,0 c -7.94,0 -12.3,4.739 -12.3,12.297 l 0,204.657 c 0,0 7.98,-0.016 12.3,-0.016 l 9.1,0 c 7.94,0 12.7,-4.766 12.7,-12.297 l 0,-28.172"
           inkscape:connector-curvature="0" />
        <path
           id="path4730"
           style="fill:#ffffff;fill-opacity:1;fill-rule:nonzero;stroke:none"
           d="m 1318.86,278.77 -15.46,-15.848 c -15.87,-15.469 -34.11,-27.774 -62.26,-27.774 -34.11,0 -58.69,18.653 -58.69,74.559 l 0,133.238 c 0,7.543 4.75,12.305 12.29,12.305 l 9.52,0 c 4,0 12.25,0.047 12.25,0.047 0,0 0.05,-8.809 0.05,-12.352 l 0,-133.238 c 0,-34.109 15.46,-43.621 34.1,-43.621 21.41,0 43.22,21.824 55.52,34.09 l 12.68,12.316 0,130.453 c 0,7.543 4.36,12.305 12.3,12.305 l 9.12,0 c 4.05,0 12.68,0.016 12.68,0.016 0,0 0.01,-8.633 0.01,-12.321 l 0,-192.328 c 0,-7.519 -4.76,-12.285 -12.69,-12.285 l -9.12,0 c -3.93,0 -12.32,0.039 -12.32,0.039 0,0 0.02,8.457 0.02,12.246 l 0,28.153"
           inkscape:connector-curvature="0" />
        <path
           id="path4732"
           style="fill:#ffffff;fill-opacity:1;fill-rule:nonzero;stroke:none"
           d="m 1507.71,424.371 c -15.47,0 -33.76,-15.355 -40.45,-23.547 -6.68,-8.187 -24.58,-36.75 -24.58,-36.75 l 0,-113.457 c 0,-3.742 -0.01,-12.265 -0.01,-12.265 0,0 -8.7,-0.02 -12.69,-0.02 l -9.12,0 c -7.93,0 -12.29,4.766 -12.29,12.285 l -0.02,204.629 21.43,0.02 c 7.94,0 12.7,-4.778 12.7,-12.321 l 0,-35.679 3.16,4.765 c 16.27,24.977 35.3,43.219 63.46,43.219 l 1.58,0 c 4.1,0 7.39,-1.422 9.52,-3.918 1.79,-2.109 2.78,-4.949 2.78,-8.387 l 0,-18.574 -15.47,0"
           inkscape:connector-curvature="0" />
        <path
           id="path4734"
           style="fill:#ffffff;fill-opacity:1;fill-rule:nonzero;stroke:none"
           d="m 1647.38,269.25 c 3.92,0 7.09,-1.289 9.23,-3.594 1.96,-2.09 3.06,-5.078 3.06,-8.691 l 0,-6.348 c 0,-3.867 0,-12.246 0,-12.246 0,0 -8.65,-0.039 -12.29,-0.039 l -18.65,0 c -43.22,0 -71.37,24.59 -71.37,71.375 l 0,182.813 c 0,3.886 -0.01,12.296 -0.01,12.296 l 21.82,0 c 7.52,0 12.29,-4.757 12.29,-12.296 l 0,-37.27 49.56,0 c 7.94,0 12.31,-4.77 12.31,-12.297 l 0,-6.336 c 0,-4.137 -0.06,-12.246 -0.06,-12.246 0,0 -8.43,-0.055 -12.25,-0.055 l -49.56,0 0,-114.609 c 0,-25 13.08,-40.457 37.27,-40.457 l 18.65,0"
           inkscape:connector-curvature="0" />
        <path
           id="path4736"
           style="fill:#ffffff;fill-opacity:1;fill-rule:nonzero;stroke:none"
           d="m 1762.97,250.617 c 0,-4.062 -0.01,-12.246 -0.01,-12.246 0,0 -8.66,-0.039 -12.29,-0.039 l -9.11,0 c -7.94,0 -12.69,4.766 -12.69,12.285 l 0,173.696 -24.2,0 c -8.32,0 -12.29,4.359 -12.29,12.304 l 0,18.68 c 0,0 8.22,-0.047 11.9,-0.047 l 46.39,0 c 7.93,0 12.3,-4.77 12.3,-12.297 l 0,-192.336 z m 0,260.149 c 0,-7.539 -4.37,-12.289 -12.3,-12.289 l -9.11,0 c -3.93,0 -12.71,0.003 -12.71,0.003 0,0 0.02,8.469 0.02,12.286 l 0,12.687 c 0,7.539 4.75,12.285 12.69,12.285 l 9.11,0 c 3.98,0 12.29,0.012 12.29,0.012 0,0 0.01,-8.527 0.01,-12.297 l 0,-12.687"
           inkscape:connector-curvature="0" />
        <path
           id="path4738"
           style="fill:#ffffff;fill-opacity:1;fill-rule:nonzero;stroke:none"
           d="m 1852.79,414.797 15.47,15.469 c 15.46,15.468 34.09,28.152 61.87,28.152 34.1,0 58.68,-18.637 58.68,-74.555 l 0,-133.246 c 0,-3.887 0.01,-12.246 0.01,-12.246 0,0 -8.48,-0.039 -12.3,-0.039 l -9.13,0 c -7.93,0 -12.69,4.766 -12.69,12.285 l 0,133.246 c 0,34.11 -15.47,43.617 -33.7,43.617 -21.82,0 -43.63,-21.816 -55.92,-34.105 l -12.29,-12.687 0,-130.071 c 0,-4.062 -0.08,-12.246 -0.08,-12.246 0,0 -8.96,-0.039 -12.61,-0.039 l -9.12,0 c -7.93,0 -12.29,4.766 -12.29,12.285 l 0,192.336 c 0,3.453 0,12.313 0,12.313 0,0 7.99,-0.016 12.29,-0.016 l 9.12,0 c 7.92,0 12.69,-4.77 12.69,-12.297 l 0,-28.156"
           inkscape:connector-curvature="0" />
        <path
           id="path4740"
           style="fill:#ffffff;fill-opacity:1;fill-rule:nonzero;stroke:none"
           d="m 1098.18,536.094 c 0.04,-0.004 0.09,-0.016 0.14,-0.02 -0.05,0.004 -0.1,0.016 -0.14,0.02"
           inkscape:connector-curvature="0" />
        <path
           id="path4742"
           style="fill:#ffffff;fill-opacity:1;fill-rule:nonzero;stroke:none"
           d="m 1098.32,536.074 c 0.53,-0.094 1.06,-0.211 1.59,-0.301 -0.53,0.102 -1.07,0.2 -1.59,0.301"
           inkscape:connector-curvature="0" />
        <path
           id="path4744"
           style="fill:#ffffff;fill-opacity:1;fill-rule:nonzero;stroke:none"
           d="m 1061.33,506.406 c 13.29,0 24.08,-1.136 34.46,-3.363 11.63,-2.914 21.78,-7.188 27.75,-9.18 2.37,-0.797 3.96,-1.191 5.55,-1.191 3.97,0 6.74,2.379 6.74,7.937 l 0.15,12.942 c 0,4.554 0.02,11.078 0.02,11.078 0,0 -0.17,0.09 -0.41,0.207 -1.21,0.527 -4.89,2.148 -7.55,2.992 -4.4,1.707 -15.15,5.375 -28.13,7.945 -0.54,0.09 -1.06,0.207 -1.59,0.301 -0.06,0.004 -0.1,0.016 -0.15,0.02 -4.66,0.875 -9.57,1.582 -14.57,2.008 -0.27,0.023 -0.54,0.054 -0.84,0.086 0,0 -0.02,0 -0.03,0 -4.97,0.464 -10.02,0.734 -15.05,0.734 -86.852,0 -142.367,-46.402 -142.367,-133.258 l 0,-37.254 c 0,-77.336 40.054,-133.262 130.067,-133.262 l 18.64,0 c 23,0 46.8,7.95 53.94,10.704 3.19,1.023 7.95,3.203 7.95,3.203 0,0 -0.02,6.543 -0.02,11.093 l 0,9.911 c 0,5.539 -2.77,7.929 -6.74,7.929 -1.6,0 -3.17,-0.398 -5.57,-1.179 -9.51,-3.184 -29.73,-9.141 -49.56,-9.141 l -18.64,0 c -59.087,0 -93.189,35.684 -93.189,100.742 l 0,37.254 c 0,72.574 43.629,100.742 99.139,100.742"
           inkscape:connector-curvature="0" />
      </g>
    </g>
    <g
       id="g3924"
       transform="matrix(1.3159395,0,0,1.3159395,962.9217,80.611176)"
       style="fill:#ffffff;fill-opacity:1">
      <path
         style="fill:#ffffff;fill-opacity:1;fill-rule:nonzero;stroke:none"
         d="m 349.52904,614.24333 c -17.96756,8.65656 -60.51511,29.75254 -69.78409,39.72928 -11.83016,12.73227 -12.42309,31.39894 -1.35158,41.68552 11.07149,10.28728 29.64277,8.2856 41.47209,-4.44598 9.27063,-9.97735 27.15165,-53.93219 34.46524,-72.48729 -6.22207,10.90538 -15.03201,25.84576 -19.20664,30.33929 -6.81304,7.33252 -15.57673,10.2829 -19.5623,6.58008 -3.98558,-3.70352 -1.69128,-12.65661 5.12177,-19.98921 4.17545,-4.49257 18.42581,-14.40635 28.84551,-21.41169 z m -56.4106,51.03978 c 3.66996,0 7.19603,1.37632 9.88788,3.87684 5.8563,5.44117 6.18732,14.62913 0.74692,20.48707 -2.7346,2.94268 -6.61636,4.62393 -10.6348,4.62393 -3.67159,0 -7.16126,-1.37746 -9.85228,-3.87692 -5.85713,-5.44205 -6.18733,-14.62983 -0.74692,-20.48699 2.73376,-2.94302 6.57911,-4.62393 10.5992,-4.62393 z m 0,2.45419 c -3.22856,0 -6.44953,1.32474 -8.82081,3.87692 -4.52232,4.86809 -4.22894,12.47761 0.64021,17.00144 2.31705,2.15284 5.24876,3.20111 8.1806,3.20111 3.22776,0 6.44956,-1.28989 8.82083,-3.84128 4.5223,-4.86905 4.26367,-12.47726 -0.60465,-17.00153 -2.31787,-2.1531 -5.28432,-3.23684 -8.21618,-3.23666 z"
         id="path4928-7"
         inkscape:connector-curvature="0" />
      <g
         style="font-size:39.67122269px;font-style:normal;font-weight:normal;line-height:125%;letter-spacing:0px;word-spacing:0px;fill:#ffffff;fill-opacity:1;stroke:none;font-family:SansaSoft Pro Bold;-inkscape-font-specification:SansaSoft Pro Bold"
         id="text5476">
        <path
           d="m 117.45396,702.23602 c 4.93402,-0.0719 8.55397,-1.32649 10.85986,-3.76376 2.30583,-2.43726 3.44636,-5.62579 3.4216,-9.5656 l 0,-3.72904 c 0.007,-3.77449 -1.16784,-6.81756 -3.52574,-9.12923 -2.35795,-2.31161 -5.94319,-3.50008 -10.75572,-3.5654 l -9.44163,0 c -0.53969,0.004 -0.95789,0.15458 -1.25459,0.45125 -0.2967,0.29674 -0.44712,0.71493 -0.45125,1.25459 l 0,26.34135 c 0.004,0.53969 0.15455,0.95788 0.45125,1.25459 0.2967,0.2967 0.7149,0.44712 1.25459,0.45125 z m 0,-23.88177 c 2.34551,0.0207 4.12078,0.68352 5.32579,1.9885 1.20498,1.30502 1.80996,3.12822 1.81494,5.4696 l 0,2.45958 c -0.005,2.50671 -0.60996,4.47536 -1.81494,5.90598 -1.20501,1.43063 -2.98028,2.15958 -5.32579,2.18685 l -4.32411,0 0,-18.01051 z"
           style="fill:#ffffff;fill-opacity:1"
           id="path3316"
           inkscape:connector-curvature="0" />
        <path
           d="m 136.36984,694.18287 c 8.2e-4,2.50504 0.62398,4.46709 1.86948,5.88614 1.24549,1.41905 3.10836,2.14139 5.58861,2.16701 l 10.67142,0 c 0.53967,-0.004 0.95786,-0.15455 1.25459,-0.45125 0.29668,-0.2967 0.4471,-0.7149 0.45125,-1.25459 l 0,-2.45958 c -0.004,-0.55704 -0.15457,-0.98019 -0.45125,-1.26946 -0.29673,-0.28926 -0.71492,-0.43472 -1.25459,-0.43638 l -8.21183,0 c -1.20501,0.0116 -2.02818,-0.24959 -2.46951,-0.7835 -0.44134,-0.53389 -0.64961,-1.40995 -0.62481,-2.62818 l 0,-2.81662 9.44163,0 c 0.55702,-0.002 0.98018,-0.1471 1.26946,-0.43638 0.28925,-0.28925 0.43471,-0.71241 0.43638,-1.26946 l 0,-2.45959 c -0.002,-0.53967 -0.14713,-0.95786 -0.43638,-1.25459 -0.28928,-0.29668 -0.71244,-0.4471 -1.26946,-0.45125 l -9.44163,0 0,-5.91094 10.71109,0 c 0.53802,-0.002 0.9496,-0.14708 1.23475,-0.43637 0.28511,-0.28924 0.42892,-0.7124 0.43142,-1.26947 l 0,-2.45958 c -0.002,-0.53966 -0.1463,-0.95785 -0.43142,-1.25459 -0.28515,-0.29667 -0.69673,-0.44709 -1.23475,-0.45125 l -15.82861,0 c -0.53969,0.004 -0.95789,0.15458 -1.25459,0.45125 -0.29671,0.29674 -0.44712,0.71493 -0.45125,1.25459 z"
           style="fill:#ffffff;fill-opacity:1"
           id="path3318"
           inkscape:connector-curvature="0" />
        <path
           d="m 162.57763,701.64096 c 1.08598,0.281 2.23643,0.5025 3.45135,0.66449 1.21491,0.16199 2.28602,0.24463 3.21333,0.24794 l 1.54716,0 c 3.39348,0.0347 6.13737,-0.65953 8.23167,-2.08271 2.09426,-1.42319 3.17198,-3.78359 3.23316,-7.08123 -0.004,-2.38601 -0.58103,-4.27863 -1.73063,-5.67787 -1.14965,-1.3992 -2.84722,-2.38931 -5.09273,-2.97034 l -4.64147,-1.26946 c -0.79426,-0.18264 -1.45709,-0.48182 -1.9885,-0.89755 -0.53143,-0.4157 -0.80747,-1.04217 -0.82812,-1.8794 0.0322,-1.06365 0.43388,-1.77277 1.20499,-2.12735 0.77109,-0.35453 1.71823,-0.51817 2.84142,-0.49092 l 1.38847,0 c 0.67687,0.005 1.54467,0.0645 2.60339,0.17852 1.0587,0.11407 2.05542,0.25292 2.99018,0.41654 0.15867,0.0331 0.27768,0.0463 0.35704,0.0397 0.43801,-0.003 0.7719,-0.13552 1.00169,-0.39671 0.22973,-0.26114 0.34544,-0.6314 0.34711,-1.11078 l 0,-2.41991 c -0.004,-0.55619 -0.15457,-1.00083 -0.45125,-1.33393 -0.29673,-0.33304 -0.71492,-0.54957 -1.25459,-0.64961 -0.94715,-0.18262 -1.93892,-0.33304 -2.9753,-0.45125 -1.03641,-0.11816 -1.90917,-0.17931 -2.61827,-0.18348 l -1.54715,0 c -3.09598,-0.0215 -5.68119,0.64633 -7.75563,2.00337 -2.07445,1.3571 -3.15217,3.53237 -3.23316,6.52584 0.0446,2.53315 0.6496,4.45884 1.81493,5.77704 1.16533,1.31824 2.62322,2.18273 4.3737,2.59348 l 4.64147,1.22979 c 0.92316,0.22068 1.71492,0.56284 2.37529,1.02648 0.66033,0.46366 1.0058,1.15294 1.03639,2.06783 -0.0265,1.22898 -0.4397,2.08355 -1.23971,2.56372 -0.80004,0.48019 -1.82817,0.70995 -3.08439,0.68928 l -1.54716,0 c -1.04385,-0.009 -2.1695,-0.1 -3.37697,-0.27273 -1.20749,-0.17273 -2.30339,-0.37274 -3.28771,-0.60002 -0.15869,-0.0463 -0.31737,-0.0727 -0.47605,-0.0793 -0.39836,0.006 -0.7025,0.14298 -0.91243,0.41158 -0.20992,0.26861 -0.31571,0.63391 -0.31736,1.0959 l 0,2.45959 c 0.002,0.53638 0.14711,0.9711 0.43638,1.30417 0.28926,0.33307 0.71241,0.55952 1.26946,0.67936 z"
           style="fill:#ffffff;fill-opacity:1"
           id="path3320"
           inkscape:connector-curvature="0" />
        <path
           d="m 187.19859,694.18287 c 8.3e-4,2.50504 0.62399,4.46709 1.86949,5.88614 1.24549,1.41905 3.10835,2.14139 5.58861,2.16701 l 10.67142,0 c 0.53966,-0.004 0.95786,-0.15455 1.25458,-0.45125 0.29669,-0.2967 0.4471,-0.7149 0.45126,-1.25459 l 0,-2.45958 c -0.004,-0.55704 -0.15457,-0.98019 -0.45125,-1.26946 -0.29673,-0.28926 -0.71493,-0.43472 -1.25459,-0.43638 l -8.21184,0 c -1.20501,0.0116 -2.02818,-0.24959 -2.4695,-0.7835 -0.44135,-0.53389 -0.64962,-1.40995 -0.62481,-2.62818 l 0,-2.81662 9.44163,0 c 0.55702,-0.002 0.98017,-0.1471 1.26946,-0.43638 0.28924,-0.28925 0.4347,-0.71241 0.43638,-1.26946 l 0,-2.45959 c -0.002,-0.53967 -0.14714,-0.95786 -0.43638,-1.25459 -0.28929,-0.29668 -0.71244,-0.4471 -1.26946,-0.45125 l -9.44163,0 0,-5.91094 10.71109,0 c 0.53801,-0.002 0.94959,-0.14708 1.23475,-0.43637 0.28511,-0.28924 0.42892,-0.7124 0.43142,-1.26947 l 0,-2.45958 c -0.003,-0.53966 -0.14631,-0.95785 -0.43142,-1.25459 -0.28516,-0.29667 -0.69674,-0.44709 -1.23475,-0.45125 l -15.82862,0 c -0.53969,0.004 -0.95788,0.15458 -1.25458,0.45125 -0.29671,0.29674 -0.44713,0.71493 -0.45126,1.25459 z"
           style="fill:#ffffff;fill-opacity:1"
           id="path3322"
           inkscape:connector-curvature="0" />
        <path
           d="m 228.44158,700.53018 c 0.19421,0.53969 0.46033,0.95788 0.79838,1.25459 0.338,0.2967 0.77273,0.44712 1.30417,0.45125 l 4.2051,0 c 0.42395,-0.002 0.76611,-0.0967 1.02648,-0.28265 0.26031,-0.18596 0.3942,-0.44878 0.40166,-0.78846 -2e-5,-0.19174 -0.0397,-0.40331 -0.11901,-0.63473 -0.53723,-1.42979 -1.38685,-3.08274 -2.54884,-4.95884 -1.16205,-1.87608 -2.38853,-3.37034 -3.67946,-4.48279 1.27605,-0.74133 2.38352,-1.78765 3.32242,-3.13894 0.93885,-1.35127 1.43143,-3.20092 1.47773,-5.54894 -0.0405,-3.79762 -1.05047,-6.41754 -3.02985,-7.85976 -1.97942,-1.44217 -4.68529,-2.12814 -8.11762,-2.05792 l -9.16393,0 c -0.53969,0.004 -0.95789,0.15458 -1.25459,0.45125 -0.2967,0.29674 -0.44712,0.71493 -0.45125,1.25459 l 0,26.34135 c 0.004,0.53969 0.15455,0.95788 0.45125,1.25459 0.2967,0.2967 0.7149,0.44712 1.25459,0.45125 l 3.41168,0 c 0.53968,-0.004 0.95787,-0.15455 1.25459,-0.45125 0.29669,-0.2967 0.44711,-0.7149 0.45125,-1.25459 l 0,-7.14073 4.16543,0 c 0.97274,0.66946 1.89343,1.71081 2.76207,3.12407 0.86861,1.41328 1.56119,2.75216 2.07775,4.01666 z m -6.2283,-22.17593 c 1.85129,-0.0512 3.19678,0.20995 4.0365,0.7835 0.83968,0.5736 1.25291,1.76702 1.23971,3.58028 0.0132,1.8381 -0.40003,3.1307 -1.23971,3.87781 -0.83972,0.74715 -2.18521,1.10749 -4.0365,1.08103 l -2.77695,0 0,-9.32262 z"
           style="fill:#ffffff;fill-opacity:1"
           id="path3324"
           inkscape:connector-curvature="0" />
        <path
           d="m 258.65118,678.35425 c 0.53966,-0.002 0.95786,-0.14708 1.25459,-0.43637 0.29668,-0.28924 0.44709,-0.7124 0.45125,-1.26947 l 0,-2.45958 c -0.004,-0.53966 -0.15457,-0.95785 -0.45125,-1.25459 -0.29673,-0.29667 -0.71493,-0.44709 -1.25459,-0.45125 l -19.51799,0 c -0.55704,0.004 -0.9802,0.15458 -1.26946,0.45125 -0.28927,0.29674 -0.43473,0.71493 -0.43638,1.25459 l 0,2.45958 c 0.002,0.55707 0.14711,0.98023 0.43638,1.26947 0.28926,0.28929 0.71242,0.43475 1.26946,0.43637 l 6.34731,0 0,22.17593 c 0.002,0.53969 0.14711,0.95788 0.43638,1.25459 0.28926,0.2967 0.71241,0.44712 1.26946,0.45125 l 3.41169,0 c 0.53967,-0.004 0.95786,-0.15455 1.25458,-0.45125 0.29669,-0.2967 0.44711,-0.7149 0.45126,-1.25459 l 0,-22.17593 z"
           style="fill:#ffffff;fill-opacity:1"
           id="path3326"
           inkscape:connector-curvature="0" />
      </g>
      <g
         style="font-size:35.02977753px;font-style:normal;font-weight:normal;line-height:125%;letter-spacing:0px;word-spacing:0px;fill:#ffffff;fill-opacity:1;stroke:none;font-family:SansaSoft Pro Bold;-inkscape-font-specification:SansaSoft Pro Bold"
         id="text5480">
        <path
           d="m 111.99936,714.6788 c -1.85307,-0.008 -3.26469,0.43527 -4.23484,1.329 -0.97017,0.89377 -1.4586,2.28472 -1.46531,4.17288 l 0,12.19336 c 0.003,0.27571 0.0836,0.49257 0.24164,0.65056 0.15799,0.15799 0.37484,0.23854 0.65056,0.24164 l 1.38786,0 c 0.27571,-0.003 0.49256,-0.0837 0.65056,-0.24164 0.15799,-0.15799 0.23853,-0.37485 0.24163,-0.65056 l 0,-7.08801 6.12147,0 c 0.2757,-0.003 0.49255,-0.0836 0.65056,-0.24164 0.15798,-0.15798 0.23852,-0.37483 0.24163,-0.65056 l 0,-0.94176 c -0.003,-0.2757 -0.0836,-0.49256 -0.24163,-0.65056 -0.15801,-0.15798 -0.37486,-0.23853 -0.65056,-0.24164 l -6.12147,0 0,-2.50311 c 0.005,-0.89321 0.21789,-1.56649 0.63817,-2.01983 0.42028,-0.45331 1.01714,-0.68049 1.79059,-0.68154 l 4.08924,0 c 0.2757,2e-5 0.49255,-0.0743 0.65056,-0.22305 0.15798,-0.14868 0.23852,-0.37173 0.24164,-0.66915 l 0,-0.89219 c -0.003,-0.2757 -0.0837,-0.49255 -0.24164,-0.65056 -0.15801,-0.15798 -0.37486,-0.23852 -0.65056,-0.24164 z"
           style="font-size:24.78356552px;font-variant:normal;font-weight:600;font-stretch:normal;fill:#ffffff;fill-opacity:1;font-family:SansaSoft Pro SemiBold;-inkscape-font-specification:'SansaSoft Pro SemiBold, Semi-Bold'"
           id="path3298"
           inkscape:connector-curvature="0" />
        <path
           d="m 123.2186,715.571 c -0.003,-0.2757 -0.0836,-0.49255 -0.24164,-0.65056 -0.158,-0.15798 -0.37485,-0.23852 -0.65056,-0.24164 l -1.38786,0 c -0.27572,0.003 -0.49257,0.0837 -0.65056,0.24164 -0.158,0.15801 -0.23854,0.37486 -0.24164,0.65056 l 0,16.80304 c 0.003,0.27571 0.0836,0.49257 0.24164,0.65056 0.15799,0.15799 0.37484,0.23854 0.65056,0.24164 l 1.38786,0 c 0.27571,-0.003 0.49256,-0.0837 0.65056,-0.24164 0.15799,-0.15799 0.23854,-0.37485 0.24164,-0.65056 z"
           style="font-size:24.78356552px;font-variant:normal;font-weight:600;font-stretch:normal;fill:#ffffff;fill-opacity:1;font-family:SansaSoft Pro SemiBold;-inkscape-font-specification:'SansaSoft Pro SemiBold, Semi-Bold'"
           id="path3300"
           inkscape:connector-curvature="0" />
        <path
           d="m 140.88257,732.00229 c -0.39552,-0.99546 -0.9614,-2.08385 -1.69766,-3.26519 -0.73628,-1.18133 -1.50043,-2.13342 -2.29245,-2.85627 0.92575,-0.42751 1.68887,-1.05948 2.28936,-1.89592 0.60046,-0.83643 0.91128,-1.98885 0.93247,-3.45726 -0.007,-2.10863 -0.53854,-3.61628 -1.59543,-4.52295 -1.05691,-0.90663 -2.59863,-1.3486 -4.62517,-1.3259 l -5.45231,0 c -0.27572,0.003 -0.49257,0.0837 -0.65056,0.24164 -0.158,0.15801 -0.23854,0.37486 -0.24164,0.65056 l 0,16.80304 c 0.003,0.27571 0.0836,0.49257 0.24164,0.65056 0.15799,0.15799 0.37484,0.23854 0.65056,0.24164 l 1.38786,0 c 0.27571,-0.003 0.49256,-0.0837 0.65056,-0.24164 0.15799,-0.15799 0.23853,-0.37485 0.24164,-0.65056 l 0,-5.50188 3.22182,0 c 0.65881,0.53904 1.33002,1.35069 2.01364,2.43495 0.68359,1.08427 1.21849,2.10658 1.60471,3.06693 0.10532,0.27571 0.23543,0.49257 0.39034,0.65056 0.15488,0.15799 0.37173,0.23854 0.65056,0.24164 l 1.71004,0 c 0.22717,-0.002 0.41098,-0.0542 0.55143,-0.158 0.14042,-0.10378 0.21271,-0.24938 0.21685,-0.4368 -0.002,-0.11153 -0.0227,-0.22305 -0.062,-0.33458 -0.0392,-0.11152 -0.0847,-0.22304 -0.1363,-0.33457 z m -7.45976,-14.6469 c 1.21592,-0.0243 2.09262,0.19777 2.63012,0.66605 0.53748,0.46832 0.8008,1.3285 0.78997,2.58056 0.015,1.16998 -0.25662,2.06424 -0.81475,2.68278 -0.55815,0.61856 -1.49269,0.93042 -2.80361,0.93557 l -2.5031,0 0,-6.86496 z"
           style="font-size:24.78356552px;font-variant:normal;font-weight:600;font-stretch:normal;fill:#ffffff;fill-opacity:1;font-family:SansaSoft Pro SemiBold;-inkscape-font-specification:'SansaSoft Pro SemiBold, Semi-Bold'"
           id="path3302"
           inkscape:connector-curvature="0" />
        <path
           d="m 154.6096,733.26624 c 0.2757,-0.003 0.49255,-0.0837 0.65056,-0.24164 0.15798,-0.15799 0.23853,-0.37485 0.24164,-0.65056 l 0,-0.8922 c -0.003,-0.2974 -0.0837,-0.52044 -0.24164,-0.66915 -0.15801,-0.14869 -0.37486,-0.22304 -0.65056,-0.22305 l -4.95665,0 c -0.7781,0.005 -1.35327,-0.19723 -1.72553,-0.60719 -0.37227,-0.40995 -0.55711,-1.05844 -0.55453,-1.94548 l 0,-3.07312 6.29495,0 c 0.2757,-0.003 0.49255,-0.0836 0.65056,-0.24164 0.15798,-0.15798 0.23852,-0.37484 0.24163,-0.65056 l 0,-0.91698 c -0.003,-0.28551 -0.0837,-0.50133 -0.24163,-0.64746 -0.15801,-0.14611 -0.37486,-0.21943 -0.65056,-0.21995 l -6.29495,0 0,-4.93187 7.06323,0 c 0.2757,2e-5 0.49255,-0.0743 0.65056,-0.22305 0.15798,-0.14868 0.23852,-0.37173 0.24163,-0.66915 l 0,-0.89219 c -0.003,-0.2757 -0.0836,-0.49255 -0.24163,-0.65056 -0.15801,-0.15798 -0.37486,-0.23852 -0.65056,-0.24164 l -9.34329,0 c -0.27571,0.003 -0.49257,0.0837 -0.65056,0.24164 -0.15799,0.15801 -0.23854,0.37486 -0.24163,0.65056 l 0,12.66424 c 0.001,1.66254 0.40789,2.91616 1.22057,3.76085 0.81268,0.8447 2.02499,1.26808 3.63694,1.27015 z"
           style="font-size:24.78356552px;font-variant:normal;font-weight:600;font-stretch:normal;fill:#ffffff;fill-opacity:1;font-family:SansaSoft Pro SemiBold;-inkscape-font-specification:'SansaSoft Pro SemiBold, Semi-Bold'"
           id="path3304"
           inkscape:connector-curvature="0" />
        <path
           d="m 166.21997,733.26624 c 1.85615,0.005 3.28015,-0.43836 4.27201,-1.32901 0.99184,-0.89064 1.49266,-2.25682 1.50249,-4.09853 -0.015,-1.15654 -0.28244,-2.07145 -0.80236,-2.74474 -0.51995,-0.67327 -1.20252,-1.15448 -2.04771,-1.44362 0.75277,-0.37742 1.34757,-0.92369 1.78439,-1.6388 0.43679,-0.71508 0.65984,-1.56494 0.66915,-2.54957 -0.002,-1.58715 -0.46315,-2.78087 -1.38477,-3.58118 -0.92164,-0.80028 -2.29401,-1.20094 -4.11711,-1.20199 l -5.99755,0 c -0.27572,0.003 -0.49257,0.0837 -0.65056,0.24164 -0.158,0.15801 -0.23854,0.37486 -0.24164,0.65056 l 0,16.80304 c 0.003,0.27571 0.0836,0.49257 0.24164,0.65056 0.15799,0.15799 0.37484,0.23854 0.65056,0.24164 z m -0.37175,-8.10413 c 0.95466,-0.008 1.67235,0.19415 2.15305,0.60719 0.48068,0.41306 0.72128,1.08634 0.72181,2.01984 0.005,0.96242 -0.21583,1.67081 -0.66295,2.12516 -0.44714,0.45436 -1.1514,0.67948 -2.11277,0.67534 l -3.56879,0 0,-5.42753 z m 0,-7.80672 c 0.81887,-0.006 1.43639,0.18538 1.85255,0.57311 0.41614,0.38777 0.62473,1.00632 0.62578,1.85565 -0.001,0.78017 -0.20964,1.44415 -0.62578,1.99195 -0.41616,0.54783 -1.03368,0.83387 -1.85255,0.85812 l -3.46965,0 0,-5.27883 z"
           style="font-size:24.78356552px;font-variant:normal;font-weight:600;font-stretch:normal;fill:#ffffff;fill-opacity:1;font-family:SansaSoft Pro SemiBold;-inkscape-font-specification:'SansaSoft Pro SemiBold, Semi-Bold'"
           id="path3306"
           inkscape:connector-curvature="0" />
        <path
           d="m 186.81777,732.39882 c 0.0614,0.27468 0.17399,0.48741 0.33767,0.63817 0.16366,0.15077 0.38155,0.22718 0.65366,0.22925 l 1.61091,0 c 0.23904,-0.001 0.43008,-0.0547 0.57312,-0.1611 0.143,-0.10636 0.21632,-0.25919 0.21995,-0.45849 0.004,-0.0702 -0.004,-0.15283 -0.0248,-0.24783 -0.34853,-1.48234 -0.66761,-2.7308 -0.95725,-3.74537 -0.28967,-1.01456 -0.61495,-2.12051 -0.97584,-3.31785 -0.40175,-1.35282 -0.86223,-2.75292 -1.38144,-4.20031 -0.51923,-1.44735 -1.01643,-2.75566 -1.49158,-3.92493 -0.47518,-1.16923 -0.84754,-2.01308 -1.11708,-2.53156 l -4.03967,0 c -0.26956,0.51848 -0.64192,1.36233 -1.11708,2.53156 -0.47517,1.16927 -0.97237,2.47758 -1.49159,3.92493 -0.51923,1.44739 -0.9797,2.84749 -1.38143,4.20031 -0.3604,1.19889 -0.68671,2.30794 -0.97894,3.32715 -0.29224,1.01921 -0.61855,2.26457 -0.97894,3.73607 -0.0206,0.095 -0.0289,0.17762 -0.0248,0.24783 0.004,0.1993 0.0769,0.35213 0.21995,0.45849 0.14302,0.10637 0.33405,0.16006 0.57311,0.1611 l 1.43743,0 c 0.28242,-0.002 0.50444,-0.0785 0.66605,-0.22925 0.1616,-0.15076 0.27829,-0.36349 0.35006,-0.63817 0.14663,-0.61648 0.28707,-1.21128 0.42132,-1.78439 0.13423,-0.57311 0.27467,-1.14313 0.42131,-1.71005 l 7.60846,0 c 0.1492,0.56692 0.29687,1.13694 0.443,1.71005 0.1461,0.57311 0.28757,1.16791 0.42441,1.78439 z m -7.58367,-6.66669 c 0.48946,-1.70126 0.99132,-3.30494 1.50558,-4.81105 0.51425,-1.50608 1.00371,-2.74421 1.46841,-3.71439 0.46467,0.97018 0.94795,2.20831 1.44982,3.71439 0.50185,1.50611 0.98512,3.10979 1.44982,4.81105 0.0237,0.0873 0.0444,0.17297 0.062,0.25712 0.0175,0.0842 0.0382,0.16368 0.0619,0.23854 l -6.14624,0 c 0.0496,-0.15282 0.0991,-0.31804 0.1487,-0.49566 z"
           style="font-size:24.78356552px;font-variant:normal;font-weight:600;font-stretch:normal;fill:#ffffff;fill-opacity:1;font-family:SansaSoft Pro SemiBold;-inkscape-font-specification:'SansaSoft Pro SemiBold, Semi-Bold'"
           id="path3308"
           inkscape:connector-curvature="0" />
        <path
           d="m 202.78034,733.26624 c 0.27571,-0.003 0.49256,-0.0837 0.65056,-0.24164 0.15798,-0.15799 0.23853,-0.37485 0.24164,-0.65056 l 0,-0.8922 c -0.003,-0.2974 -0.0837,-0.52044 -0.24164,-0.66915 -0.158,-0.14869 -0.37485,-0.22304 -0.65056,-0.22305 l -4.23793,0 c -0.7781,0.005 -1.35328,-0.19723 -1.72554,-0.60719 -0.37227,-0.40995 -0.55711,-1.05844 -0.55452,-1.94548 l 0,-12.46597 c -0.003,-0.2757 -0.0837,-0.49255 -0.24164,-0.65056 -0.15799,-0.15798 -0.37485,-0.23852 -0.65056,-0.24164 l -1.38786,0 c -0.27572,0.003 -0.49257,0.0837 -0.65056,0.24164 -0.15799,0.15801 -0.23854,0.37486 -0.24164,0.65056 l 0,12.66424 c 0.006,1.64086 0.42183,2.88828 1.24846,3.74227 0.82662,0.85399 2.02964,1.28356 3.60906,1.28873 z"
           style="font-size:24.78356552px;font-variant:normal;font-weight:600;font-stretch:normal;fill:#ffffff;fill-opacity:1;font-family:SansaSoft Pro SemiBold;-inkscape-font-specification:'SansaSoft Pro SemiBold, Semi-Bold'"
           id="path3310"
           inkscape:connector-curvature="0" />
        <path
           d="m 216.09183,733.26624 c 0.2757,-0.003 0.49255,-0.0837 0.65056,-0.24164 0.15798,-0.15799 0.23853,-0.37485 0.24164,-0.65056 l 0,-0.8922 c -0.003,-0.2974 -0.0837,-0.52044 -0.24164,-0.66915 -0.15801,-0.14869 -0.37486,-0.22304 -0.65056,-0.22305 l -4.23794,0 c -0.77809,0.005 -1.35327,-0.19723 -1.72553,-0.60719 -0.37227,-0.40995 -0.55711,-1.05844 -0.55452,-1.94548 l 0,-12.46597 c -0.003,-0.2757 -0.0836,-0.49255 -0.24164,-0.65056 -0.158,-0.15798 -0.37485,-0.23852 -0.65056,-0.24164 l -1.38786,0 c -0.27572,0.003 -0.49257,0.0837 -0.65056,0.24164 -0.158,0.15801 -0.23854,0.37486 -0.24164,0.65056 l 0,12.66424 c 0.006,1.64086 0.42183,2.88828 1.24846,3.74227 0.82662,0.85399 2.02964,1.28356 3.60906,1.28873 z"
           style="font-size:24.78356552px;font-variant:normal;font-weight:600;font-stretch:normal;fill:#ffffff;fill-opacity:1;font-family:SansaSoft Pro SemiBold;-inkscape-font-specification:'SansaSoft Pro SemiBold, Semi-Bold'"
           id="path3312"
           inkscape:connector-curvature="0" />
      </g>
      <g
         style="font-size:24.78356552px;font-style:normal;font-variant:normal;font-weight:600;font-stretch:normal;line-height:125%;letter-spacing:0px;word-spacing:0px;fill:#ffffff;fill-opacity:1;stroke:none;font-family:SansaSoft Pro SemiBold;-inkscape-font-specification:'SansaSoft Pro SemiBold, Semi-Bold'"
         id="text5484">
        <path
           d="m 241.60959,732.74579 c 0.1048,0.17348 0.22975,0.30359 0.37485,0.39033 0.14507,0.0867 0.35057,0.13012 0.61648,0.13012 l 1.0409,0 c 0.28757,-0.002 0.51165,-0.0785 0.67225,-0.22925 0.16055,-0.15076 0.24213,-0.36349 0.24473,-0.63817 l 0,-16.82782 c -0.003,-0.2757 -0.0842,-0.49255 -0.24473,-0.65056 -0.1606,-0.15798 -0.38468,-0.23852 -0.67225,-0.24164 l -1.36308,0 c -0.2876,0.003 -0.51168,0.0837 -0.67224,0.24164 -0.16059,0.15801 -0.24217,0.37486 -0.24474,0.65056 l 0,11.77204 -8.32717,-12.14379 c -0.11566,-0.16262 -0.24371,-0.28964 -0.38414,-0.38104 -0.14044,-0.0914 -0.34284,-0.13784 -0.60719,-0.13941 l -1.0409,0 c -0.28759,0.003 -0.51167,0.0837 -0.67224,0.24164 -0.16058,0.15801 -0.24216,0.37486 -0.24474,0.65056 l 0,16.82782 c 0.003,0.27468 0.0842,0.48741 0.24474,0.63817 0.16057,0.15077 0.38465,0.22718 0.67224,0.22925 l 1.36308,0 c 0.28759,-0.002 0.51167,-0.0785 0.67225,-0.22925 0.16057,-0.15076 0.24215,-0.36349 0.24473,-0.63817 l 0,-11.84639 z"
           id="path3330"
           inkscape:connector-curvature="0"
           style="fill:#ffffff;fill-opacity:1" />
        <path
           d="m 259.30043,733.26624 c 0.2757,-0.003 0.49255,-0.0837 0.65056,-0.24164 0.15798,-0.15799 0.23852,-0.37485 0.24163,-0.65056 l 0,-0.8922 c -0.003,-0.2974 -0.0836,-0.52044 -0.24163,-0.66915 -0.15801,-0.14869 -0.37486,-0.22304 -0.65056,-0.22305 l -4.95665,0 c -0.7781,0.005 -1.35328,-0.19723 -1.72554,-0.60719 -0.37227,-0.40995 -0.55711,-1.05844 -0.55452,-1.94548 l 0,-3.07312 6.29494,0 c 0.27571,-0.003 0.49256,-0.0836 0.65056,-0.24164 0.15798,-0.15798 0.23853,-0.37484 0.24164,-0.65056 l 0,-0.91698 c -0.003,-0.28551 -0.0837,-0.50133 -0.24164,-0.64746 -0.158,-0.14611 -0.37485,-0.21943 -0.65056,-0.21995 l -6.29494,0 0,-4.93187 7.06322,0 c 0.27571,2e-5 0.49256,-0.0743 0.65056,-0.22305 0.15798,-0.14868 0.23853,-0.37173 0.24164,-0.66915 l 0,-0.89219 c -0.003,-0.2757 -0.0837,-0.49255 -0.24164,-0.65056 -0.158,-0.15798 -0.37485,-0.23852 -0.65056,-0.24164 l -9.34328,0 c -0.27572,0.003 -0.49257,0.0837 -0.65056,0.24164 -0.158,0.15801 -0.23854,0.37486 -0.24164,0.65056 l 0,12.66424 c 0.001,1.66254 0.40789,2.91616 1.22058,3.76085 0.81268,0.8447 2.02499,1.26808 3.63694,1.27015 z"
           id="path3332"
           inkscape:connector-curvature="0"
           style="fill:#ffffff;fill-opacity:1" />
        <path
           d="m 275.347,717.35539 c 0.2757,2e-5 0.49255,-0.0743 0.65056,-0.22305 0.15798,-0.14868 0.23852,-0.37173 0.24164,-0.66915 l 0,-0.89219 c -0.003,-0.2757 -0.0837,-0.49255 -0.24164,-0.65056 -0.15801,-0.15798 -0.37486,-0.23852 -0.65056,-0.24164 l -12.31727,0 c -0.28656,0.003 -0.50651,0.0837 -0.65986,0.24164 -0.15335,0.15801 -0.23079,0.37486 -0.23234,0.65056 l 0,0.89219 c 0.002,0.29742 0.079,0.52047 0.23234,0.66915 0.15335,0.14872 0.3733,0.22307 0.65986,0.22305 l 4.56011,0 0,15.01865 c 0.003,0.27571 0.0836,0.49257 0.24164,0.65056 0.15799,0.15799 0.37484,0.23854 0.65056,0.24164 l 1.38786,0 c 0.28655,-0.003 0.5065,-0.0837 0.65986,-0.24164 0.15333,-0.15799 0.23078,-0.37485 0.23234,-0.65056 l 0,-15.01865 z"
           id="path3334"
           inkscape:connector-curvature="0"
           style="fill:#ffffff;fill-opacity:1" />
        <path
           d="m 288.29799,715.571 c -0.42081,2.87125 -0.96708,5.64801 -1.6388,8.33027 -0.67174,2.68227 -1.39768,4.91999 -2.17782,6.71316 -0.76881,-1.91863 -1.46171,-4.20282 -2.0787,-6.85257 -0.617,-2.64973 -1.15501,-5.38001 -1.61401,-8.19086 -0.047,-0.2757 -0.14509,-0.49255 -0.2943,-0.65056 -0.14922,-0.15798 -0.36504,-0.23852 -0.64746,-0.24164 l -1.6357,0 c -0.24989,0.003 -0.44403,0.0713 -0.5824,0.20446 -0.13838,0.13323 -0.2086,0.31291 -0.21066,0.53904 l 0,0.1487 c 0.35722,2.37966 0.8076,4.70561 1.35115,6.97786 0.54354,2.27226 1.11876,4.33937 1.72564,6.20132 0.60688,1.86196 1.18394,3.36731 1.73116,4.51606 l 4.23794,0 c 0.48945,-1.07033 1.04088,-2.58521 1.65428,-4.54463 0.61337,-1.95942 1.17719,-4.11246 1.69145,-6.45914 0.50134,2.34203 1.05999,4.48578 1.67597,6.43126 0.61595,1.94548 1.1808,3.46965 1.69456,4.57251 l 4.11401,0 c 0.77756,-1.68217 1.61399,-4.10473 2.50931,-7.26769 0.89527,-3.16295 1.64496,-6.6388 2.24908,-10.42755 l 0.0248,-0.19827 c -0.002,-0.21322 -0.0723,-0.38154 -0.21066,-0.50496 -0.1384,-0.12338 -0.33253,-0.18637 -0.5824,-0.18897 l -1.51178,0 c -0.28555,0.003 -0.50756,0.0837 -0.66605,0.24164 -0.15853,0.15801 -0.25044,0.37486 -0.27571,0.65056 -0.44303,2.86506 -0.98826,5.64801 -1.6357,8.34885 -0.64748,2.70087 -1.34141,4.93239 -2.08179,6.69458 -0.81219,-2.02706 -1.54226,-4.34223 -2.19022,-6.94551 -0.648,-2.60326 -1.17361,-5.30256 -1.57683,-8.09792 -0.0372,-0.2757 -0.13633,-0.49255 -0.2974,-0.65056 -0.16111,-0.15798 -0.38416,-0.23852 -0.66915,-0.24164 l -1.14003,0 c -0.28399,0.003 -0.50291,0.0837 -0.65676,0.24164 -0.15387,0.15801 -0.24887,0.37486 -0.285,0.65056 z"
           id="path3336"
           inkscape:connector-curvature="0"
           style="fill:#ffffff;fill-opacity:1" />
        <path
           d="m 312.05771,733.4645 c 2.6678,-0.0248 4.6804,-0.81785 6.03781,-2.37919 1.35739,-1.56134 2.03789,-3.74226 2.04153,-6.54278 l 0,-1.21438 c -0.004,-2.85161 -0.68414,-5.03563 -2.04153,-6.55207 -1.35741,-1.5164 -3.37001,-2.28159 -6.03781,-2.29555 -2.66782,0.0217 -4.68043,0.80238 -6.03782,2.34202 -1.3574,1.53968 -2.03791,3.70821 -2.04152,6.5056 l 0,1.21438 c 0.004,2.85473 0.68412,5.05114 2.04152,6.58925 1.35739,1.53811 3.37,2.31568 6.03782,2.33272 z m 0,-2.70137 c -1.69663,-0.004 -2.92547,-0.52923 -3.68651,-1.57684 -0.76106,-1.0476 -1.13487,-2.59552 -1.12144,-4.64376 l 0,-1.21438 c -0.0134,-2.03428 0.36038,-3.56671 1.12144,-4.59729 0.76104,-1.03055 1.98988,-1.54687 3.68651,-1.54895 1.69661,0.002 2.92544,0.5184 3.6865,1.54895 0.76104,1.03058 1.13486,2.56301 1.12145,4.59729 l 0,1.21438 c 0.0134,2.04824 -0.36041,3.59616 -1.12145,4.64376 -0.76106,1.04761 -1.98989,1.57323 -3.6865,1.57684 z"
           id="path3338"
           inkscape:connector-curvature="0"
           style="fill:#ffffff;fill-opacity:1" />
        <path
           d="m 336.81757,732.00229 c -0.39551,-0.99546 -0.9614,-2.08385 -1.69765,-3.26519 -0.73628,-1.18133 -1.50043,-2.13342 -2.29245,-2.85627 0.92574,-0.42751 1.68886,-1.05948 2.28935,-1.89592 0.60046,-0.83643 0.91129,-1.98885 0.93247,-3.45726 -0.007,-2.10863 -0.53853,-3.61628 -1.59542,-4.52295 -1.05692,-0.90663 -2.59864,-1.3486 -4.62518,-1.3259 l -5.45231,0 c -0.27572,0.003 -0.49257,0.0837 -0.65056,0.24164 -0.158,0.15801 -0.23854,0.37486 -0.24164,0.65056 l 0,16.80304 c 0.003,0.27571 0.0837,0.49257 0.24164,0.65056 0.15799,0.15799 0.37484,0.23854 0.65056,0.24164 l 1.38786,0 c 0.27571,-0.003 0.49256,-0.0837 0.65056,-0.24164 0.15799,-0.15799 0.23854,-0.37485 0.24164,-0.65056 l 0,-5.50188 3.22182,0 c 0.65881,0.53904 1.33003,1.35069 2.01364,2.43495 0.68359,1.08427 1.2185,2.10658 1.60472,3.06693 0.10531,0.27571 0.23542,0.49257 0.39033,0.65056 0.15488,0.15799 0.37174,0.23854 0.65056,0.24164 l 1.71005,0 c 0.22716,-0.002 0.41097,-0.0542 0.55142,-0.158 0.14043,-0.10378 0.21271,-0.24938 0.21686,-0.4368 -0.002,-0.11153 -0.0227,-0.22305 -0.062,-0.33458 -0.0393,-0.11152 -0.0847,-0.22304 -0.13631,-0.33457 z m -7.45976,-14.6469 c 1.21592,-0.0243 2.09263,0.19777 2.63012,0.66605 0.53748,0.46832 0.8008,1.3285 0.78997,2.58056 0.015,1.16998 -0.25662,2.06424 -0.81475,2.68278 -0.55815,0.61856 -1.49268,0.93042 -2.8036,0.93557 l -2.50311,0 0,-6.86496 z"
           id="path3340"
           inkscape:connector-curvature="0"
           style="fill:#ffffff;fill-opacity:1" />
        <path
           d="m 350.27199,732.37404 c 0.21478,0.27571 0.42337,0.49257 0.62578,0.65056 0.20238,0.15799 0.44815,0.23854 0.7373,0.24164 l 2.05701,0 c 0.22097,-5.2e-4 0.37999,-0.0367 0.47708,-0.10843 0.0971,-0.0718 0.14455,-0.17607 0.1425,-0.31289 -2e-5,-0.11979 -0.0744,-0.27675 -0.22305,-0.47088 l -7.13757,-8.92197 6.7906,-7.88107 c 0.16934,-0.19412 0.25195,-0.35108 0.24784,-0.47088 0.002,-0.13681 -0.0511,-0.24111 -0.158,-0.31289 -0.10689,-0.0718 -0.27727,-0.10789 -0.51115,-0.10843 l -1.88353,0 c -0.26591,0.003 -0.50239,0.0837 -0.70942,0.24164 -0.20705,0.15801 -0.42494,0.37486 -0.65366,0.65056 l -5.65058,6.71626 -1.11524,0 0,-6.71626 c -0.003,-0.2757 -0.0837,-0.49255 -0.24164,-0.65056 -0.158,-0.15798 -0.37485,-0.23852 -0.65056,-0.24164 l -1.38786,0 c -0.27572,0.003 -0.49257,0.0837 -0.65056,0.24164 -0.158,0.15801 -0.23854,0.37486 -0.24164,0.65056 l 0,16.80304 c 0.003,0.27571 0.0836,0.49257 0.24164,0.65056 0.15799,0.15799 0.37484,0.23854 0.65056,0.24164 l 1.38786,0 c 0.27571,-0.003 0.49256,-0.0837 0.65056,-0.24164 0.15799,-0.15799 0.23853,-0.37485 0.24164,-0.65056 l 0,-7.48454 0.99133,0 z"
           id="path3342"
           inkscape:connector-curvature="0"
           style="fill:#ffffff;fill-opacity:1" />
      </g>
    </g>
    <text
       xml:space="preserve"
       style="font-size:40px;font-style:normal;font-weight:normal;line-height:125%;letter-spacing:0px;word-spacing:0px;fill:#000000;fill-opacity:1;stroke:none;font-family:SansaSoft Pro Bold;-inkscape-font-specification:SansaSoft Pro Bold"
       x="535.85968"
       y="-45.382248"
       id="text3327"
       sodipodi:linespacing="125%"
       transform="translate(0,520.86612)"><tspan
         sodipodi:role="line"
         id="tspan3329"
         x="535.85968"
         y="-45.382248" /></text>
  </g>
</svg>
